<svg id="Calque_1" xmlns="http://www.w3.org/2000/svg" xmlns:xlink="http://www.w3.org/1999/xlink" viewBox="0 0 468 156.6">
  <style>
    .st0{clip-path:url(#SVGID_2_);} .st1{clip-path:url(#SVGID_2_);fill:#FF6600;}
  </style>
  <defs>
    <path id="SVGID_1_" d="M0 0h468v156.6H0z"/>
  </defs>
  <clipPath id="SVGID_2_">
    <use xlink:href="#SVGID_1_" overflow="visible"/>
  </clipPath>
  <path class="st0" d="M138.6 93.4c-.1 2.9-.8 5.6-1.9 8-1.1 2.4-2.7 4.5-4.7 6.2-2 1.7-4.4 3.1-7.2 4-2.8 1-5.9 1.4-9.4 1.4-3.7 0-7.1-.6-10-1.9-2.9-1.3-5.4-3.1-7.5-5.4-2-2.3-3.6-5.2-4.7-8.6-1.1-3.4-1.6-7.2-1.6-11.4v-3c0-4.2.6-8 1.7-11.4 1.1-3.4 2.7-6.2 4.8-8.6 2.1-2.4 4.5-4.2 7.4-5.4 2.9-1.3 6.1-1.9 9.7-1.9 3.6 0 6.9.5 9.7 1.5 2.8 1 5.2 2.4 7.1 4.2 1.9 1.8 3.5 3.9 4.6 6.4 1.1 2.5 1.8 5.1 2 8h-13.5c-.1-1.6-.3-2.9-.6-4.2-.4-1.2-1-2.2-1.8-3-.8-.8-1.8-1.4-3-1.8-1.2-.4-2.7-.6-4.5-.6-1.7 0-3.1.3-4.3.9-1.2.6-2.3 1.6-3.1 2.9-.8 1.3-1.4 3.1-1.8 5.2-.4 2.1-.6 4.7-.6 7.6v3.1c0 3 .2 5.5.5 7.6.4 2.1.9 3.8 1.7 5.2.8 1.3 1.8 2.3 3.1 2.9 1.3.6 2.8.9 4.7.9 3.1 0 5.5-.7 7.1-2.2 1.6-1.5 2.5-3.8 2.6-7h13.5z"/>
  <path class="st0" d="M142.7 91.2c0-3 .4-5.8 1.3-8.4.9-2.6 2.2-4.8 3.8-6.7 1.7-1.9 3.8-3.4 6.3-4.4 2.5-1.1 5.4-1.6 8.6-1.6 3.3 0 6.2.5 8.7 1.6 2.5 1.1 4.6 2.5 6.3 4.4 1.7 1.9 3 4.1 3.8 6.7.9 2.6 1.3 5.4 1.3 8.4v.8c0 3.1-.4 5.9-1.3 8.4-.9 2.6-2.1 4.8-3.8 6.7-1.7 1.9-3.8 3.4-6.3 4.4-2.5 1.1-5.4 1.6-8.6 1.6-3.3 0-6.1-.5-8.6-1.6s-4.6-2.5-6.3-4.4c-1.7-1.9-3-4.1-3.9-6.7-.9-2.6-1.3-5.4-1.3-8.4v-.8zm13 .8c0 1.6.1 3 .3 4.4.2 1.4.6 2.5 1.2 3.5s1.3 1.8 2.2 2.4c.9.6 2.1.9 3.5.9s2.5-.3 3.4-.9c.9-.6 1.6-1.4 2.2-2.4.5-1 .9-2.2 1.2-3.5.2-1.4.3-2.8.3-4.4v-.8c0-1.5-.1-2.9-.3-4.3-.2-1.4-.6-2.5-1.2-3.6-.6-1-1.3-1.8-2.2-2.4-.9-.6-2.1-.9-3.5-.9s-2.5.3-3.4.9c-.9.6-1.6 1.4-2.2 2.4-.5 1-.9 2.2-1.2 3.6s-.3 2.8-.3 4.3v.8z"/>
  <path class="st0" d="M187 91.3c0-3.2.3-6 1-8.7.7-2.6 1.7-4.9 3.1-6.7 1.4-1.9 3-3.3 5.1-4.3 2-1 4.4-1.5 7-1.5 2 0 3.7.4 5.3 1.2 1.5.8 2.9 1.8 4.1 3.2V53.3h13v59.1h-11.7l-.7-4.5c-1.2 1.6-2.7 2.9-4.3 3.8-1.7.9-3.6 1.4-5.8 1.4-2.6 0-5-.5-7-1.6s-3.7-2.5-5-4.4c-1.4-1.9-2.4-4.1-3.1-6.7-.7-2.6-1-5.4-1-8.4v-.7zm12.9.8c0 1.6.1 3 .3 4.4.2 1.3.6 2.5 1.1 3.5s1.2 1.8 2 2.3c.8.6 1.9.8 3.1.8 1.5 0 2.7-.3 3.7-.9 1-.6 1.8-1.5 2.4-2.7V83.7c-1.2-2.5-3.2-3.7-6.1-3.7-1.2 0-2.2.3-3.1.8-.8.6-1.5 1.4-2 2.4s-.9 2.2-1.1 3.6c-.2 1.4-.3 2.9-.3 4.5v.8z"/>
  <path class="st0" d="M253.1 113.2c-3.4 0-6.4-.5-9.1-1.6-2.7-1.1-4.9-2.5-6.7-4.4-1.8-1.8-3.2-4-4.2-6.4-1-2.4-1.4-5-1.4-7.8v-1.5c0-3 .4-5.9 1.2-8.5.8-2.6 2.1-4.9 3.8-6.8 1.7-1.9 3.8-3.4 6.3-4.5s5.4-1.7 8.8-1.7c2.9 0 5.6.5 7.9 1.4 2.3.9 4.3 2.3 6 4.1 1.6 1.8 2.9 3.9 3.7 6.4.9 2.5 1.3 5.3 1.3 8.5v5.3h-25.8c.5 2.3 1.5 4.2 3 5.5 1.6 1.3 3.6 2 6.1 2 1.8 0 3.5-.3 5.2-1 1.7-.7 3.2-1.8 4.4-3.3l5.9 7c-.7.9-1.5 1.8-2.6 2.7-1 .9-2.2 1.6-3.6 2.3-1.4.7-2.9 1.2-4.7 1.7-1.7.3-3.5.6-5.5.6M251.6 80c-1.1 0-2.1.2-2.8.6-.8.4-1.5.9-2 1.6-.5.7-.9 1.5-1.2 2.4-.3.9-.5 1.9-.7 3H258v-1c0-2.1-.5-3.7-1.6-4.8-1.2-1.2-2.8-1.8-4.8-1.8"/>
  <path class="st1" d="M42.9 137c-1.8 1.1-3.6 1.9-5.6 2.6-1.4.4-2.4 1.8-2.3 3.3.1 2.5 1.1 5.2 2.9 7.8 3.8 5.3 9.8 7.5 13.4 4.9 3.6-2.6 3.4-8.9-.4-14.2-1.3-1.9-2.9-3.3-4.6-4.3-1-.8-2.4-.8-3.4-.1"/>
  <path class="st1" d="M18.2 137.4c-1.1-.7-2.6-.6-3.6.2-1.3 1-2.6 2.2-3.6 3.7-3.8 5.3-4 11.7-.4 14.2 3.6 2.6 9.6.4 13.4-4.9 1.7-2.3 2.6-4.8 2.9-7.2.2-1.6-.9-3.2-2.5-3.6-2.2-.4-4.2-1.3-6.2-2.4"/>
  <path class="st1" d="M30.4 75.1c10.4 0 18.2-9.6 16.1-19.8-2.9-13.9-6-20.8-7.3-30.3-.5-3.3-3.2-16.4.6-18.7 6.1-3.8 4.7 6.1 5.1 6.6 2.2 3.1 5.1-4.5 3.9-8.3C47.3-.2 42-.6 37.7.7c-7.9 2.5-12 13.7-14.6 20.6-3.8 10.3-7.2 19.5-9.5 35-1.5 9.9 6.2 18.8 16.3 18.8h.5z"/>
  <path class="st1" d="M30.2 134.4c-9.9 0-18.7-6.5-22.5-16.5-.7-1.7-1.7-3.4-3-4.9-3.1-3.3-4.7-7.2-4.7-11.1C0 96.2 3.2 91 9.1 87c5.7-3.8 13.2-5.9 21.1-5.9s15.5 2.1 21.1 5.9c5.8 3.9 9.1 9.2 9.1 14.9 0 4-1.6 7.8-4.7 11.1-1.3 1.5-2.4 3.1-3.1 4.9-3.7 10.1-12.5 16.5-22.4 16.5"/>
  <path class="st0" d="M309.5 102H333v10.4h-37v-56h13.5z"/>
  <path class="st0" d="M362.4 107.9c-1.3 1.7-2.9 3-4.7 3.9-1.8.9-4 1.4-6.4 1.4-2.1 0-3.9-.3-5.6-.9-1.7-.6-3.2-1.5-4.4-2.7-1.2-1.2-2.2-2.8-2.8-4.8-.7-2-1-4.3-1-7.1V70.8h13v27c0 1.8.4 3.2 1.3 4.1.9.9 2.2 1.3 3.9 1.3 1.6 0 2.9-.3 3.9-.8 1-.6 1.8-1.3 2.4-2.3V70.8h13v41.6h-12.2l-.4-4.5z"/>
  <path class="st0" d="M397.1 60.4v10.4h6.8v9h-6.8v19c0 .8.1 1.5.2 2s.4 1 .7 1.3c.3.3.8.5 1.3.7.5.1 1.2.2 2 .2.7 0 1.4 0 1.8-.1.5 0 .9-.1 1.4-.2v9.3c-1.1.4-2.3.6-3.5.8-1.2.2-2.5.3-3.8.3-2.1 0-3.9-.2-5.6-.7-1.6-.5-3-1.2-4.1-2.3-1.1-1-2-2.3-2.5-4-.6-1.6-.9-3.6-.9-5.8V79.8h-5.3v-9h5.3V60.4h13z"/>
  <path class="st0" d="M409.8 84.1h13v28.3h-13z"/>
  <path class="st0" d="M442.7 70.8l.4 4.9c1.4-1.8 3.1-3.3 5.1-4.2 2-1 4.3-1.4 6.8-1.4 1.9 0 3.7.3 5.3.8 1.6.6 3 1.5 4.1 2.7 1.2 1.3 2 2.9 2.7 5 .6 2.1.9 4.6.9 7.6v26.2h-13V86.2c0-1.3-.1-2.3-.4-3.1-.3-.8-.7-1.4-1.2-1.9s-1.1-.8-1.8-.9c-.7-.2-1.6-.2-2.5-.2-1.4 0-2.5.3-3.4.8-.9.5-1.6 1.3-2.2 2.2v29.4h-13V70.8h12.2z"/>
  <path class="st0" d="M416.4 79.9c4.3 0 7.6-4 6.7-8.2-1.2-5.7-2.5-8.6-3-12.6-.2-1.4-1.3-6.8.3-7.8 2.5-1.6 2 2.5 2.1 2.8.9 1.3 2.1-1.9 1.6-3.5-.6-2-2.8-2.2-4.6-1.6-3.3 1-5 5.7-6 8.5-1.6 4.3-3 8.1-3.9 14.5-.6 4.1 2.6 7.8 6.7 7.8h.1z"/>
</svg>
