<?xml version="1.0" encoding="utf-8"?>
<!-- Generator: Adobe Illustrator 21.0.2, SVG Export Plug-In . SVG Version: 6.00 Build 0)  -->
<svg version="1.1" id="bg-header.svg" xmlns="http://www.w3.org/2000/svg" xmlns:xlink="http://www.w3.org/1999/xlink" x="0px"
	 y="0px" viewBox="0 0 1439 366" style="enable-background:new 0 0 1439 366;" xml:space="preserve">
<style type="text/css">
	.st0{fill:url(#SVGID_1_);}
	.st1{clip-path:url(#SVGID_3_);}
	.st2{fill:#FFE8D9;}
	.st3{clip-path:url(#SVGID_5_);}
	.st4{fill:#FFF0E6;}
	.st5{fill:#FFF9F4;}
</style>
<linearGradient id="SVGID_1_" gradientUnits="userSpaceOnUse" x1="719" y1="858" x2="719" y2="612" gradientTransform="matrix(1 0 0 1 0 -492)">
	<stop  offset="0" style="stop-color:#FFE8D9"/>
	<stop  offset="1" style="stop-color:#FFFFFF"/>
</linearGradient>
<rect x="-3.3" y="120" class="st0" width="1444.7" height="246"/>
<g>
	<g>
		<defs>
			<rect id="SVGID_2_" width="1439" height="366"/>
		</defs>
		<clipPath id="SVGID_3_">
			<use xlink:href="#SVGID_2_"  style="overflow:visible;"/>
		</clipPath>
		<g id="second" class="st1">
			<path class="st2" d="M136.4,227.6c2.3-1.3,5.1-1.6,7.7-1.1l-2.1-12.9c-0.8-5.2-0.6-10.5,0.6-15.7c-5-2.6-10-8.6-11-21.7
				c-0.8-11.1,9.4-18.7,22.2-24l6.6-45.6c0.6-5-0.9-10-4.2-13.7l0,0c-6.3-7.5-20.6-5.9-23.9,2.7l-5.3,1.1c-4.4,0.9-9-0.6-11.2-3.8
				l-2.5-3.4c-1.8-2.4-1.8-5.8,0.1-8.1l1.9-2.4c10.8-13.9,32-20.2,51.6-15.2c12.4,3,24.5,7.3,36,12.8c27.8,13.4,36.9,62.1,39.4,79.4
				c7.1,3.3,13.3,7.1,16.8,11.1c7.7,8.7,4.1,14.9,0,18.5c3.2,5,5.3,10.5,6.3,16.3l2.1,12.9c2.5-1,5.2-1.2,7.8-0.4
				c5.6,1.9,7.4,8.6,4.1,14.9c-1.8,3.4-4.8,6.1-8.4,7.6l3.5,21.6c4.4,27.3-19.7,52-53.8,55.3l0,0c-34.1,3.3-65.3-16.2-69.6-43.5
				l-3.5-21.6c-4-0.8-7.7-2.8-10.5-5.8C131.9,237.3,131.6,230.5,136.4,227.6z"/>
			<path class="st2" d="M395.4,165.6c2.3-1.3,5.1-1.6,7.7-1.1l-2.1-12.9c-0.8-5.2-0.6-10.5,0.6-15.7c-5-2.6-10-8.6-11-21.7
				c-0.8-11.1,9.4-18.7,22.2-24l6.6-45.6c0.6-5-0.9-10-4.2-13.7l0,0c-6.3-7.5-20.6-5.9-23.9,2.7l-5.3,1.1c-4.4,0.9-9-0.6-11.2-3.8
				l-2.5-3.4c-1.8-2.4-1.8-5.8,0.1-8.1l1.9-2.4c10.8-13.9,32-20.2,51.6-15.2c12.4,3,24.5,7.3,36,12.8C489.7,28,498.8,76.7,501.3,94
				c7.1,3.3,13.3,7.1,16.8,11.1c7.7,8.7,4.1,14.9,0,18.5c3.2,5,5.3,10.5,6.3,16.3l2.1,12.9c2.5-1,5.2-1.2,7.8-0.4
				c5.6,1.9,7.4,8.6,4.1,14.9c-1.8,3.4-4.8,6.1-8.4,7.6l3.5,21.6c4.4,27.3-19.7,52-53.8,55.3l0,0c-34.1,3.3-65.3-16.2-69.6-43.5
				l-3.5-21.6c-4-0.8-7.7-2.8-10.5-5.8C390.9,175.3,390.6,168.5,395.4,165.6z"/>
			<path class="st2" d="M326,259l134-47l132-21l123,64l133,137l160-71l155-10l104-8l89-89l70,67l-12,114L2,409l9-92l175-21L326,259z
				"/>
			<path class="st2" d="M112,267.4c-1.6-1-3.5-1.3-5.3-0.9l1.4-10.4c0.6-4.2,0.4-8.5-0.4-12.6c3.5-2.1,7-6.9,7.7-17.5
				c0.6-8.9-6.6-15.1-15.5-19.3l-4.6-36.8c-0.5-3.9,0.6-7.9,2.9-11l0,0c4.4-6.1,14.4-4.8,16.7,2.2l3.7,0.9c3,0.8,6.1-0.5,7.8-3
				l1.7-2.8c1.3-2,1.2-4.6-0.1-6.5l-1.3-2c-7.5-11.2-22.3-16.2-36-12.3c-8.7,2.5-17.2,5.9-25.1,10.3c-19.4,10.8-25.8,50-27.5,63.9
				c-4.9,2.7-9.3,5.7-11.7,8.9c-5.4,7-2.8,12,0,14.9c-2.3,4.1-3.7,8.5-4.4,13.1L20.5,257c-1.7-0.8-3.6-1-5.4-0.3
				c-3.9,1.5-5.2,6.9-2.9,12c1.2,2.7,3.2,4.8,5.8,6.1l-2.4,17.4c-3.1,22,13.8,41.9,37.6,44.5l0,0c23.8,2.6,45.6-13,48.6-35l2.4-17.4
				c2.9-0.7,5.5-2.3,7.3-4.6C115.1,275.2,115.3,269.7,112,267.4z"/>
			<path class="st2" d="M639.8,169c-1.5-1.5-3.6-2.2-5.7-2l3.6-12.3c1.5-5,2.1-10.2,2-15.4c4.3-1.9,9-7,11.8-19.7
				c2.4-10.7-4.3-19.5-13.2-26.2l2.1-45.3c0.2-4.8,2.1-9.3,5.4-12.8l0,0c3.8-4.2,10.4-4.5,14.6-0.7c1.8,1.7,3,3.9,3.3,6.4l3.9,1.8
				c3.2,1.5,7,0.5,9.2-2.2l2.4-3c1.8-2.2,2.2-5.3,1.2-7.9l-1.1-2.6C673.4,12,658,3.1,642.2,5.4c-10.2,1.4-20.1,4-29.6,7.8
				c-23.4,9.5-38.1,55.8-42.7,72.3c-5.9,2.3-11.3,5.2-14.7,8.7c-7.3,7.5-5.5,14-2.9,18c-3.3,4.6-5.8,9.7-7.4,15.1l-3.6,12.3
				c-1.7-1.3-3.8-1.8-5.9-1.4c-4.6,1.1-7.1,7.4-5.5,14c0.7,3.3,2.5,6.3,5.2,8.5l-6.1,20.6c-7.6,26,6.9,53.2,32.6,60.8l0,0
				c25.6,7.6,52.6-7.4,60.3-33.4l6.1-20.6c3.4-0.3,6.6-1.8,9-4.3C641.8,179,643.1,172.4,639.8,169z"/>
			<path class="st2" d="M778.1,293c-2.5-1.4-5.5-1.6-8.2-0.5L770,275c0.1-7.1-1-14.1-3.1-20.9c4.9-4.1,9.2-12.6,8.1-30.2
				c-0.9-14.9-12.9-23.9-27.1-29.4l-14.1-60.1c-1.5-6.3-0.7-13,2.2-18.8l0,0c3.5-7,11.9-9.8,18.9-6.4c3,1.5,5.4,4,6.7,7.1l5.7,0.9
				c4.8,0.7,9.4-1.9,11.2-6.4l2-4.9c1.5-3.6,1-7.7-1.4-10.8l-2.4-3C763.3,74.8,739.9,69,720,77.9c-12.8,5.6-24.8,12.8-35.9,21.3
				c-27.1,21.2-29.1,87.3-28.9,110.6c-6.9,5.3-12.8,11-16,16.8c-6.7,12.5-1.9,20.4,2.9,24.7c-2.6,7.2-4,14.8-4,22.5l-0.1,17.5
				c-2.7-1.1-5.7-1-8.2,0.4c-5.6,3.2-6.5,12.3-2,20.4c2.2,4.1,5.7,7.4,10,9.1l-0.2,29.3c-0.3,36.9,29,67.1,65.4,67.4l0,0
				c36.4,0.3,66.1-29.4,66.4-66.3l0.2-29.3c4.3-1.7,7.9-4.9,10.1-9C784.4,305.5,783.6,296.4,778.1,293z"/>
			<path class="st2" d="M947,361.1c1.5-1.8,3.5-2.9,5.8-3.3l-5.4-10.1c-2.2-4.1-3.6-8.6-4.1-13.3c-4.8-0.6-10.5-4-15.1-14.7
				c-3.9-9,2-18.5,10.7-26.9l-8.1-40.1c-0.9-4.3-3.6-8-7.3-10.2l0,0c-7.2-4.3-18.2,1.4-18.3,9.6l-3.9,2.6c-3.2,2.1-7.4,2.3-10.1,0.3
				l-3-2.1c-2.2-1.5-3.1-4.3-2.3-6.8l0.8-2.6c4.5-14.9,19.6-26.7,36.8-28.7c10.8-1.3,21.7-1.5,32.5-0.5c26.1,2.6,47.7,40.4,54.7,54
				c6.6,0.6,12.7,1.8,16.7,4.1c8.7,4.9,7.6,11.2,5.4,15.4c4,3.2,7.4,7.2,9.8,11.7l5.4,10.1c1.6-1.6,3.8-2.6,6.1-2.7
				c5-0.1,8.4,4.8,7.7,11.1c-0.4,3.4-2,6.5-4.5,8.9l9.1,17c11.5,21.4-0.6,49.5-26.8,62.8l0,0c-26.3,13.3-56.9,6.7-68.3-14.7l-9.1-17
				c-3.4,0.6-7,0-10.1-1.6C946.3,370.6,944,365,947,361.1z"/>
			<path class="st2" d="M1197.4,340.7c-2.2-1.5-4.9-2-7.5-1.4l-0.3-14.8c-0.2-6.1-1.3-12.2-3.3-18c4.3-2.9,8-9.6,6.6-24.6
				c-1.2-12.7-12.2-21.8-25.3-28.1l-14.3-52.5c-1.5-5.2-1-10.8,1.5-15.6l0,0c4.6-8.5,18.5-6.3,23.2,3.7l5.2,1.4
				c4.3,1.2,8.4-0.5,10-4l1.7-3.9c1.2-3.2,0.6-6.7-1.6-9.3l-2.2-2.8c-12.7-16.2-33.9-24-51.6-18.8c-11.2,3.1-21.9,7.8-31.9,13.7
				c-24,14.7-24.2,70.3-23.4,90.1c-6.1,3.6-11.3,7.8-14,12.3c-5.8,9.8-1.2,17,3.3,21.2c-2.2,5.9-3.3,12.2-3.1,18.6l0.3,14.8
				c-2.6-1.2-5.3-1.5-7.4-0.7c-5,2-5.6,9.6-1.3,17c2.1,3.8,5.4,6.9,9.3,8.9l0.5,24.8c0.7,31.2,27.9,60.2,60.8,64.9l0,0
				c32.9,4.6,59.1-16.9,58.4-48.1l-0.5-24.8c3.7-0.8,7-3.1,9-6.3C1203.4,352,1202.5,344.2,1197.4,340.7z"/>
			<path class="st2" d="M1251.9,215.3c2.3-1.3,5-1.6,7.5-0.8l-1.9-14.7c-0.8-5.9-0.5-11.9,0.8-17.7c-4.9-3.2-9.6-10.2-10.4-25.1
				c-0.7-12.5,9.4-20.7,21.8-26l6.9-51.2c0.7-5.5-0.7-11.1-3.9-15.7l0,0c-6-8.8-20-7.8-23.3,1.8l-5.1,1c-4.3,0.8-8.6-1.1-10.9-4.8
				l-2.4-4c-1.7-2.8-1.7-6.4,0.2-9.2l1.8-2.6c10.6-15.1,31.3-21.1,50.4-14.5c12.2,4.2,23.9,9.6,34.9,16.3
				c26.9,16.6,35.3,72.1,37.4,91.8c6.8,4.1,12.8,8.7,16.2,13.4c7.4,10.2,3.8,17.1-0.2,20.9c3.1,5.9,5.1,12.2,5.9,18.8l1.9,14.7
				c2.4-1.1,5.1-1.1,7.6,0c5.4,2.4,7.2,10.1,3.8,17c-1.6,3.6-4.6,6.5-8.2,8.1l3.1,24.6c4,31.1-19.8,57.8-53,59.7l0,0
				c-33.2,1.9-63.3-21.7-67.3-52.8l-3.1-24.6c-4.1-1.2-7.6-3.7-10.2-7.1C1247.4,226.1,1247.2,218.4,1251.9,215.3z"/>
		</g>
	</g>
</g>
<g>
	<g>
		<defs>
			<rect id="SVGID_4_" y="120" width="1439" height="246"/>
		</defs>
		<clipPath id="SVGID_5_">
			<use xlink:href="#SVGID_4_"  style="overflow:visible;"/>
		</clipPath>
		<g id="first" class="st3">
			<path class="st4" d="M598.8,385.2c-2.4-1-5.2-0.9-7.5,0.4l-1.7-15.8c-0.7-6.4-2.4-12.6-5-18.5c4-4.2,7-12.3,4.2-28.1
				c-2.4-13.3-14.2-20.2-27.7-23.7L542,246.7c-2-5.6-2-11.6,0-17.2l0,0c2.4-6.7,9.8-10.2,16.5-7.7c2.9,1,5.3,3,6.8,5.7l5.3,0.2
				c4.4,0.1,8.3-2.7,9.5-6.9l1.3-4.6c1-3.4,0.1-7.1-2.4-9.6l-2.5-2.5c-14-14.1-35.8-16.9-52.9-6.8c-11,6.4-21.1,14.2-30.3,23.1
				c-22.3,22-17.2,81.8-14.6,102.9c-5.7,5.5-10.5,11.3-12.7,16.9c-4.7,12,0.4,18.6,5.3,21.9c-1.6,6.8-2,13.8-1.3,20.8l1.7,15.8
				c-2.5-0.7-5.3-0.3-7.4,1.2c-4.7,3.5-4.6,11.8,0.3,18.6c2.4,3.5,5.9,6,10,7.2l2.9,26.5c3.6,33.3,33.3,57.5,66.3,53.9l0,0
				c33-3.6,56.8-33.5,53.2-66.9l-2.9-26.5c3.7-2,6.7-5.2,8.2-9.2C605.8,395.7,604.2,387.6,598.8,385.2z"/>
			<path class="st4" d="M389,275c-2.6-0.6-5.3-0.2-7.7,1l-1.5-13c-0.6-5.2-2.2-10.3-4.8-14.9c4.2-3.9,7.3-10.9,4.8-23.8
				c-2.2-10.9-14.1-15.5-27.8-17.2l-18.6-42.2c-2-4.6-1.8-9.8,0.3-14.3l0,0c4-8.9,18.3-11.2,23.8-3.8l5.4-0.3c4.4-0.3,8.5-3,9.8-6.6
				l1.5-4c1.1-2.8,0.2-6-2.3-7.8l-2.5-1.8c-14.1-10.5-36.2-10.9-53.8-0.9c-11.1,6.2-21.6,13.6-31.3,22c-23.2,20.4-19,69.7-16.7,87
				c-5.9,5.1-10.9,10.4-13.2,15.2c-5.1,10.4,0.1,15.5,5,17.8c-1.7,5.6-2.3,11.5-1.7,17.4l1.5,13c-2.7-0.3-5.3,0.3-7.6,1.7
				c-4.9,3.3-4.9,10.2,0,15.4c2.7,2.8,6.2,4.6,10.1,5.1l2.5,21.8c3.1,27.4,32.9,44.9,66.6,38.9l0,0c33.7-6,58.5-33.1,55.5-60.5
				l-2.5-21.8c3.7-1.8,6.7-4.8,8.6-8.4C396,283.2,394.4,276.5,389,275z"/>
			<path class="st5" d="M764.6,356.7c1.5-1.5,3.6-2.2,5.7-2l-3.6-12.3c-1.5-5-2.1-10.1-2-15.3c-4.3-1.9-9-7-11.8-19.7
				c-2.4-10.6,4.3-19.4,13.2-26.2L764,236c-0.2-4.8-2.1-9.3-5.4-12.8l0,0c-3.9-4.2-10.4-4.5-14.6-0.7c-1.8,1.7-3,3.9-3.3,6.3
				l-3.9,1.8c-3.2,1.5-7,0.5-9.2-2.2l-2.4-3c-1.8-2.2-2.2-5.3-1.2-7.9l1.1-2.6c6-14.9,21.3-23.7,37.2-21.4c10.2,1.4,20.1,4,29.7,7.8
				c23.4,9.5,38.1,55.7,42.7,72.1c5.9,2.3,11.3,5.2,14.7,8.6c7.3,7.5,5.5,14,2.9,18c3.3,4.6,5.8,9.7,7.4,15.1l3.6,12.3
				c1.7-1.3,3.8-1.8,5.9-1.4c4.6,1.1,7.1,7.4,5.5,13.9c-0.7,3.3-2.5,6.3-5.2,8.4l6.1,20.6c7.7,26-6.9,53.1-32.6,60.7l0,0
				c-25.6,7.5-52.6-7.4-60.3-33.4l-6.1-20.6c-3.4-0.3-6.6-1.8-9-4.3C762.7,366.7,761.4,360.1,764.6,356.7z"/>
			<path class="st2" d="M953.3,380c1.4-1.7,3.4-2.6,5.6-2.6l-4.9-12.1c-2-4.9-3.2-10.1-3.6-15.4c-4.5-1.5-9.9-6.2-14-18.8
				c-3.5-10.6,2.3-20.2,10.8-28l-6.8-45.7c-0.7-4.8-3.1-9.2-6.7-12.5l0,0c-4.3-3.9-11-3.5-14.9,0.8c-1.7,1.9-2.6,4.3-2.7,6.8
				l-3.7,2.2c-3.1,1.8-7.1,1.3-9.6-1.3l-2.8-2.8c-2.1-2.1-2.8-5.1-2-7.9l0.8-2.7c4.6-15.7,19.3-26.2,35.6-25.6
				c10.5,0.4,20.9,2,30.9,4.9c24.8,7.3,44.4,52.6,50.8,68.9c6.3,1.7,12,4.1,15.8,7.3c8.1,6.9,7,13.6,4.8,18
				c3.8,4.3,6.9,9.2,9.1,14.5l4.9,12.1c1.6-1.5,3.7-2.2,5.8-2c4.8,0.7,7.9,6.8,7,13.6c-0.4,3.5-1.9,6.7-4.4,9.1l8.3,20.3
				c10.4,25.6-1.6,54.7-26.9,65l0,0c-25.3,10.3-54.2-2.1-64.6-27.7l-8.3-20.3c-3.5,0-6.9-1.2-9.5-3.4
				C952.4,390.3,950.4,383.8,953.3,380z"/>
			<path class="st5" d="M1270.6,411.7c1.5-1.5,3.6-2.2,5.7-2l-3.6-12.3c-1.5-5-2.1-10.1-2-15.3c-4.3-1.9-9-7-11.8-19.7
				c-2.4-10.6,4.3-19.4,13.2-26.2L1270,291c-0.2-4.8-2.1-9.3-5.3-12.8l0,0c-3.9-4.2-10.4-4.5-14.6-0.7c-1.8,1.7-3,3.9-3.3,6.3
				l-3.9,1.8c-3.2,1.5-7,0.5-9.2-2.2l-2.4-3c-1.8-2.2-2.2-5.3-1.2-7.9l1.1-2.6c6-14.8,21.3-23.7,37.2-21.4c10.2,1.4,20.1,4,29.7,7.8
				c23.4,9.5,38.1,55.7,42.7,72.1c5.9,2.3,11.3,5.2,14.7,8.6c7.3,7.5,5.5,14,2.9,18c3.3,4.6,5.8,9.7,7.4,15.1l3.6,12.3
				c1.7-1.3,3.8-1.8,5.9-1.4c4.6,1.1,7.1,7.4,5.5,13.9c-0.7,3.3-2.5,6.3-5.2,8.4l6.1,20.6c7.7,26-6.9,53.1-32.6,60.7l0,0
				c-25.7,7.5-52.6-7.4-60.3-33.4l-6.1-20.6c-3.4-0.3-6.6-1.8-9-4.3C1268.7,421.7,1267.4,415.1,1270.6,411.7z"/>
			<path class="st5" d="M133.8,382c-1.5-1.5-3.6-2.2-5.7-2l3.6-12.3c1.5-5,2.1-10.2,2-15.4c4.3-1.9,9-7,11.8-19.7
				c2.4-10.7-4.3-19.5-13.2-26.2l2.1-45.3c0.2-4.8,2.1-9.3,5.4-12.8l0,0c3.8-4.2,10.4-4.5,14.6-0.7c1.8,1.7,3,3.9,3.3,6.4l3.9,1.8
				c3.2,1.5,7,0.5,9.2-2.2l2.4-3c1.8-2.2,2.2-5.3,1.2-7.9l-1.1-2.6c-6-14.9-21.3-23.7-37.2-21.5c-10.2,1.4-20.1,4-29.6,7.8
				c-23.4,9.5-38.1,55.8-42.7,72.3c-5.9,2.3-11.3,5.2-14.7,8.7c-7.3,7.5-5.5,14-2.9,18c-3.3,4.6-5.8,9.7-7.4,15.1l-3.6,12.3
				c-1.7-1.3-3.8-1.8-5.9-1.4c-4.6,1.1-7.1,7.4-5.5,14c0.7,3.3,2.5,6.3,5.2,8.5l-6,20.4c-7.6,26,6.9,53.2,32.6,60.8l0,0
				c25.6,7.6,52.6-7.4,60.3-33.4l6.1-20.6c3.4-0.3,6.6-1.8,9-4.3C135.8,392,137.1,385.4,133.8,382z"/>
		</g>
	</g>
</g>
</svg>
