<svg xmlns="http://www.w3.org/2000/svg" id="logo-square.svg" width="176" height="104">
  <defs>
    <style>
      .cls-1, .cls-2 { fill-rule: evenodd; } .cls-2 { fill: #f60; }
    </style>
  </defs>
  <path d="M81.591 34.41a15.152 15.152 0 0 1-1.315 5.7A13.088 13.088 0 0 1 77 44.536a14.992 14.992 0 0 1-5.02 2.87 19.732 19.732 0 0 1-6.551 1.025 17.356 17.356 0 0 1-6.994-1.339 14.212 14.212 0 0 1-5.208-3.84 17.015 17.015 0 0 1-3.249-6.095 27.215 27.215 0 0 1-1.114-8.076v-2.159a26.08 26.08 0 0 1 1.168-8.076 17.586 17.586 0 0 1 3.329-6.108 14.616 14.616 0 0 1 5.2-3.867 16.437 16.437 0 0 1 6.766-1.353 19.53 19.53 0 0 1 6.752 1.079 14.476 14.476 0 0 1 4.98 2.993 13.734 13.734 0 0 1 3.195 4.537 17.955 17.955 0 0 1 1.423 5.712h-9.4a11.507 11.507 0 0 0-.443-2.951 5.1 5.1 0 0 0-1.221-2.132 5.311 5.311 0 0 0-2.121-1.285 9.964 9.964 0 0 0-3.168-.437 6.608 6.608 0 0 0-3.034.656 5.365 5.365 0 0 0-2.148 2.077 10.944 10.944 0 0 0-1.275 3.676 30.334 30.334 0 0 0-.416 5.425v2.214a33.254 33.254 0 0 0 .376 5.411 11.136 11.136 0 0 0 1.194 3.676 5.028 5.028 0 0 0 2.148 2.091 7.326 7.326 0 0 0 3.262.656 7.154 7.154 0 0 0 4.967-1.558q1.718-1.558 1.825-4.947h9.37zm2.9-1.585a18.945 18.945 0 0 1 .913-5.985 13.678 13.678 0 0 1 2.684-4.783 12.182 12.182 0 0 1 4.39-3.157 16.58 16.58 0 0 1 12.054 0 12.182 12.182 0 0 1 4.39 3.157 13.7 13.7 0 0 1 2.685 4.783 18.974 18.974 0 0 1 .912 5.985v.575a19.168 19.168 0 0 1-.9 6 13.4 13.4 0 0 1-2.671 4.755 12.266 12.266 0 0 1-4.39 3.143 16.58 16.58 0 0 1-12.054 0 12.386 12.386 0 0 1-4.4-3.143 13.425 13.425 0 0 1-2.7-4.755 18.907 18.907 0 0 1-.913-6v-.575zm9.047.574a20.06 20.06 0 0 0 .228 3.116 7.788 7.788 0 0 0 .806 2.514 4.464 4.464 0 0 0 1.544 1.681 4.417 4.417 0 0 0 2.416.615 4.3 4.3 0 0 0 2.376-.615 4.415 4.415 0 0 0 1.517-1.681 8.252 8.252 0 0 0 .8-2.514 18.959 18.959 0 0 0 .242-3.116v-.574a19.813 19.813 0 0 0-.228-3.061 7.98 7.98 0 0 0-.806-2.528 4.668 4.668 0 0 0-1.544-1.722 4.275 4.275 0 0 0-2.416-.642 4.16 4.16 0 0 0-2.376.642 4.61 4.61 0 0 0-1.517 1.722 8.435 8.435 0 0 0-.805 2.528 18.611 18.611 0 0 0-.242 3.061v.575zm21.827-.519a24.429 24.429 0 0 1 .725-6.149 14.38 14.38 0 0 1 2.148-4.783 9.878 9.878 0 0 1 3.53-3.088 10.5 10.5 0 0 1 4.9-1.093 8 8 0 0 1 3.678.82 9.34 9.34 0 0 1 2.872 2.3V5.905h9.075v41.979h-8.135l-.456-3.17a9.935 9.935 0 0 1-3.034 2.719 8.025 8.025 0 0 1-4.054 1 10.051 10.051 0 0 1-4.859-1.134 10.3 10.3 0 0 1-3.517-3.129 14.4 14.4 0 0 1-2.148-4.742 23.363 23.363 0 0 1-.725-5.972v-.576zm9.048.574a21.025 21.025 0 0 0 .214 3.1 8.542 8.542 0 0 0 .739 2.5 4.24 4.24 0 0 0 1.4 1.667 3.714 3.714 0 0 0 2.161.6 4.823 4.823 0 0 0 2.6-.669 4.612 4.612 0 0 0 1.691-1.9V27.5a4.326 4.326 0 0 0-4.241-2.624 3.673 3.673 0 0 0-2.135.6 4.326 4.326 0 0 0-1.409 1.681 8.984 8.984 0 0 0-.779 2.542 19.58 19.58 0 0 0-.241 3.184v.574zm37.076 14.977a16.532 16.532 0 0 1-6.336-1.148 13.667 13.667 0 0 1-4.7-3.116 13.5 13.5 0 0 1-2.913-4.564 15.137 15.137 0 0 1-1.007-5.521v-1.038a20.188 20.188 0 0 1 .872-6.026 13.54 13.54 0 0 1 2.631-4.851 12.335 12.335 0 0 1 4.377-3.225 14.792 14.792 0 0 1 6.107-1.175 14.452 14.452 0 0 1 5.544 1.011 11.353 11.353 0 0 1 4.162 2.9 12.781 12.781 0 0 1 2.6 4.564 18.841 18.841 0 0 1 .9 6.013V36h-17.982a6.662 6.662 0 0 0 2.121 3.908 6.235 6.235 0 0 0 4.241 1.421 9.757 9.757 0 0 0 3.638-.71 7.328 7.328 0 0 0 3.074-2.35l4.135 4.974a10.672 10.672 0 0 1-1.786 1.913 12.378 12.378 0 0 1-2.537 1.644 15.934 15.934 0 0 1-7.141 1.631zm-1.02-23.559a4.453 4.453 0 0 0-1.987.41A3.9 3.9 0 0 0 157.1 26.4a5.577 5.577 0 0 0-.872 1.694 12.315 12.315 0 0 0-.483 2.132h9.128v-.708a4.62 4.62 0 0 0-1.1-3.43 4.338 4.338 0 0 0-3.304-1.216zM60 92.521h17.2v7.741H50.11V58.519H60v34zm38.7 4.387a9.81 9.81 0 0 1-8.14 3.928 12.6 12.6 0 0 1-4.126-.645 8 8 0 0 1-3.21-2.036 9.472 9.472 0 0 1-2.084-3.584 16.387 16.387 0 0 1-.747-5.26V69.242h9.491v20.126a4.154 4.154 0 0 0 .972 3.039 3.827 3.827 0 0 0 2.831.974 5.811 5.811 0 0 0 2.886-.63 4.654 4.654 0 0 0 1.76-1.749v-21.76h9.548v31.02h-8.9zm25.423-35.378v7.713h5.013v6.708h-5.013v14.192a6.236 6.236 0 0 0 .155 1.519 2.071 2.071 0 0 0 .507.961 1.926 1.926 0 0 0 .943.5 6.377 6.377 0 0 0 1.465.143q.816 0 1.352-.043t1.014-.129V100a17.614 17.614 0 0 1-2.535.617 17.269 17.269 0 0 1-2.816.215 14.3 14.3 0 0 1-4.07-.531 7.4 7.4 0 0 1-3.013-1.677 7.235 7.235 0 0 1-1.859-2.953 13.108 13.108 0 0 1-.634-4.329v-15.4h-3.886v-6.708h3.886V61.53h9.491zm18.757 38.733h-9.519V79.2h9.519v21.062zm14.56-31.02l.31 3.641a10.278 10.278 0 0 1 3.76-3.139 11.149 11.149 0 0 1 4.943-1.076 11.642 11.642 0 0 1 3.872.617 7.193 7.193 0 0 1 3.028 2.035 9.668 9.668 0 0 1 1.957 3.727 20.135 20.135 0 0 1 .69 5.691v19.524h-9.519V80.71a7.417 7.417 0 0 0-.3-2.294 3.327 3.327 0 0 0-.845-1.405 2.877 2.877 0 0 0-1.352-.7 8.066 8.066 0 0 0-1.816-.187 4.823 4.823 0 0 0-2.521.6 4.7 4.7 0 0 0-1.619 1.635v21.9h-9.491v-31.02h8.9zm-19.2 6.829a5.052 5.052 0 0 0 4.878-6.127c-.893-4.282-1.836-6.412-2.218-9.352-.134-1.032-.939-5.068.218-5.792 1.852-1.159 1.429 1.874 1.549 2.051.656.973 1.555-1.39 1.2-2.573-.453-1.5-2.066-1.621-3.379-1.2-2.4.768-3.651 4.246-4.42 6.358a48.128 48.128 0 0 0-2.875 10.818 5.048 5.048 0 0 0 4.932 5.817h.118z" class="cls-1"/>
  <path d="M27.969 90.956a15.807 15.807 0 0 1-3.636 1.7 2.176 2.176 0 0 0-1.486 2.2 10.2 10.2 0 0 0 1.916 5.151c2.473 3.514 6.372 4.981 8.708 3.277s2.226-5.935-.247-9.448a10.581 10.581 0 0 0-2.99-2.886 2.125 2.125 0 0 0-2.265.006zm-16.074.294a2.137 2.137 0 0 0-2.357.118 10.869 10.869 0 0 0-2.379 2.468c-2.473 3.513-2.583 7.743-.247 9.448s6.236.237 8.709-3.277a10.373 10.373 0 0 0 1.88-4.751 2.192 2.192 0 0 0-1.625-2.364A15.628 15.628 0 0 1 11.9 91.25zM19.8 49.867A10.855 10.855 0 0 0 30.284 36.7c-1.919-9.2-3.944-13.781-4.766-20.1-.289-2.217-2.017-10.891.47-12.448 3.979-2.491 3.07 4.027 3.327 4.407 1.411 2.091 3.341-2.987 2.573-5.53-.973-3.218-4.44-3.484-7.262-2.58-5.148 1.65-7.846 9.125-9.5 13.664a103.313 103.313 0 0 0-6.179 23.248 10.846 10.846 0 0 0 10.6 12.5h.253zm-.112 39.4c-6.442 0-12.194-4.3-14.652-10.946a10.063 10.063 0 0 0-1.993-3.271A10.983 10.983 0 0 1 0 67.662c0-3.757 2.1-7.262 5.911-9.869a26.19 26.19 0 0 1 27.558 0c3.812 2.606 5.911 6.111 5.911 9.869a10.983 10.983 0 0 1-3.045 7.392 10.074 10.074 0 0 0-1.993 3.271c-2.459 6.649-8.21 10.946-14.652 10.946z" class="cls-2"/>
</svg>