<?xml version="1.0" encoding="utf-8"?>
<!-- Generator: Adobe Illustrator 21.0.2, SVG Export Plug-In . SVG Version: 6.00 Build 0)  -->
<svg version="1.1" id="bg-header-page-type.svg" xmlns="http://www.w3.org/2000/svg" xmlns:xlink="http://www.w3.org/1999/xlink"
	 x="0px" y="0px" viewBox="0 0 1439 403" style="enable-background:new 0 0 1439 403;" xml:space="preserve">
<style type="text/css">
	.st0{clip-path:url(#SVGID_2_);}
	.st1{fill:#EDEDE0;}
	.st2{fill:#EAE9DB;}
	.st3{fill:#E5E4D2;}
	.st4{fill:#E6E5D3;}
	.st5{fill:url(#SVGID_3_);}
</style>
<g>
	<defs>
		<rect id="SVGID_1_" y="0" width="1436" height="403"/>
	</defs>
	<clipPath id="SVGID_2_">
		<use xlink:href="#SVGID_1_"  style="overflow:visible;"/>
	</clipPath>
	<g class="st0">
		<g id="second">
			<path class="st1" d="M137.4,227.5c2.3-1.3,5.1-1.6,7.7-1.1l-2.1-12.9c-0.8-5.2-0.6-10.5,0.6-15.7c-5-2.6-10-8.5-11-21.7
				c-0.8-11,9.4-18.7,22.2-24l6.6-45.6c0.6-5-0.9-10-4.2-13.7l0,0c-6.3-7.5-20.6-5.9-23.9,2.7l-5.3,1.1c-4.4,0.9-9-0.6-11.2-3.8
				l-2.5-3.4c-1.8-2.4-1.8-5.8,0.1-8.1l1.9-2.4c10.8-13.9,32-20.2,51.6-15.2c12.4,3,24.5,7.3,36,12.8c27.8,13.4,36.9,62.1,39.4,79.3
				c7.1,3.3,13.3,7.1,16.8,11.1c7.7,8.7,4.1,14.9,0,18.5c3.2,4.9,5.3,10.5,6.3,16.3l2.1,12.9c2.5-1,5.2-1.2,7.8-0.4
				c5.6,1.9,7.4,8.6,4.1,14.9c-1.8,3.4-4.8,6.1-8.4,7.6l3.5,21.6c4.4,27.3-19.7,52-53.8,55.3l0,0c-34.1,3.3-65.3-16.2-69.6-43.4
				l-3.5-21.6c-4-0.8-7.7-2.8-10.5-5.8C132.9,237.2,132.6,230.4,137.4,227.5z"/>
			<path class="st1" d="M396.4,165.5c2.3-1.3,5.1-1.6,7.7-1.1l-2.1-12.9c-0.8-5.2-0.6-10.5,0.6-15.7c-5-2.6-10-8.5-11-21.7
				c-0.8-11,9.4-18.7,22.2-24l6.6-45.6c0.6-5-0.9-10-4.2-13.7l0,0c-6.3-7.5-20.6-5.9-23.9,2.7l-5.3,1.1c-4.4,0.9-9-0.6-11.2-3.8
				l-2.5-3.4c-1.8-2.4-1.8-5.8,0.1-8.1l1.9-2.4c10.8-13.9,32-20.2,51.6-15.2c12.4,3,24.5,7.3,36,12.8c27.8,13.4,36.9,62.1,39.4,79.3
				c7.1,3.3,13.3,7.1,16.8,11.1c7.7,8.7,4.1,14.9,0,18.5c3.2,4.9,5.3,10.5,6.3,16.3l2.1,12.9c2.5-1,5.2-1.2,7.8-0.4
				c5.6,1.9,7.4,8.6,4.1,14.9c-1.8,3.4-4.8,6.1-8.4,7.6l3.5,21.6c4.4,27.3-19.7,52-53.8,55.3l0,0c-34.1,3.3-65.3-16.2-69.6-43.4
				l-3.5-21.6c-4-0.8-7.7-2.8-10.5-5.8C391.9,175.2,391.6,168.4,396.4,165.5z"/>
			<path class="st1" d="M327,258.9l134-47l132-21l123,64l133,136.9l160-71l155-10l104-8l89-89l70,67l-12,114L3,408.8l9-92l175-21
				L327,258.9z"/>
			<path class="st1" d="M113,267.2c-1.6-1-3.5-1.3-5.3-0.9l1.4-10.4c0.6-4.2,0.4-8.5-0.4-12.6c3.5-2.1,7-6.9,7.7-17.4
				c0.6-8.9-6.6-15.1-15.5-19.3l-4.6-36.7c-0.5-3.9,0.6-7.9,2.9-11l0,0c4.4-6.1,14.4-4.8,16.7,2.2l3.7,0.9c3,0.8,6.1-0.5,7.8-3
				l1.7-2.8c1.3-2,1.2-4.6-0.1-6.5l-1.3-1.9c-7.5-11.2-22.3-16.2-36-12.3c-8.7,2.5-17.2,5.9-25.1,10.3c-19.4,10.8-25.8,50-27.5,63.9
				c-4.9,2.7-9.3,5.7-11.7,8.9c-5.4,7-2.8,12,0,14.9c-2.3,4.1-3.7,8.5-4.4,13.1l-1.4,10.4c-1.7-0.8-3.6-1-5.4-0.3
				c-3.9,1.5-5.2,6.9-2.9,12c1.2,2.7,3.2,4.8,5.8,6.1L16.6,292c-3.1,22,13.8,41.9,37.6,44.5l0,0c23.8,2.6,45.6-13,48.6-35l2.4-17.4
				c2.9-0.7,5.5-2.3,7.3-4.6C116.1,275.1,116.3,269.6,113,267.2z"/>
			<path class="st1" d="M640.8,168.9c-1.5-1.5-3.6-2.2-5.7-2l3.6-12.3c1.5-5,2.1-10.2,2-15.3c4.3-1.9,9-7,11.8-19.7
				c2.4-10.7-4.3-19.5-13.2-26.2l2.1-45.3c0.2-4.8,2.1-9.3,5.3-12.8l0,0c3.8-4.2,10.4-4.5,14.6-0.7c1.8,1.7,3,3.9,3.3,6.4l3.9,1.8
				c3.2,1.5,7,0.5,9.2-2.2l2.4-3c1.8-2.2,2.2-5.3,1.2-7.9l-1.1-2.6c-6-14.9-21.3-23.7-37.2-21.5c-10.2,1.4-20.1,4-29.6,7.8
				c-23.4,9.5-38.1,55.7-42.7,72.2c-5.9,2.3-11.3,5.2-14.7,8.7c-7.3,7.5-5.5,14-2.9,18c-3.3,4.6-5.8,9.7-7.4,15.1l-3.6,12.3
				c-1.7-1.3-3.8-1.8-5.9-1.4c-4.6,1.1-7.1,7.4-5.5,14c0.7,3.3,2.5,6.3,5.2,8.5l-6.1,20.6c-7.6,26,6.9,53.2,32.6,60.8l0,0
				c25.6,7.6,52.6-7.4,60.3-33.4l6.1-20.6c3.4-0.3,6.6-1.8,9-4.3C642.8,178.9,644.1,172.3,640.8,168.9z"/>
			<path class="st1" d="M813.4,264.5c-3-1.7-6.6-1.9-9.9-0.6l0.2-21c0.1-8.5-1.2-16.9-3.7-25c5.9-4.9,11-15.1,9.7-36.2
				c-1.1-17.8-15.4-28.6-32.5-35.2l-16.9-72c-1.8-7.6-0.8-15.5,2.6-22.5l0,0c4.1-8.4,14.3-11.8,22.6-7.6c3.6,1.8,6.5,4.8,8,8.5
				l6.9,1c5.7,0.8,11.2-2.3,13.4-7.6l2.5-5.8c1.8-4.3,1.2-9.3-1.7-13l-2.8-3.6c-16-20.6-44.1-27.7-67.9-17
				c-15.3,6.8-29.7,15.3-43,25.5C668.4,57.9,666,137,666.2,164.9c-8.3,6.3-15.4,13.2-19.1,20.1c-8,15-2.3,24.4,3.5,29.5
				c-3.1,8.6-4.8,17.8-4.8,27l-0.2,21c-3.2-1.3-6.8-1.2-9.9,0.5c-6.7,3.8-7.8,14.8-2.4,24.4c3,5.4,7.5,9.3,12,10.9l-0.3,35.1
				c-0.3,44.2,34.7,80.3,78.3,80.7l0,0c43.6,0.4,79.2-35.2,79.5-79.3l0.3-35.1c4.5-1.6,9-5.3,12.1-10.7
				C820.9,279.3,820,268.4,813.4,264.5z"/>
			<path class="st1" d="M1188.4,346.6c-2.2-1.5-4.9-2-7.5-1.4l-0.3-14.8c-0.2-6.1-1.3-12.2-3.3-18c4.3-2.9,8-9.5,6.6-24.6
				c-1.2-12.7-12.2-21.8-25.3-28.1l-14.3-52.5c-1.5-5.2-1-10.8,1.5-15.6l0,0c4.6-8.5,18.5-6.3,23.2,3.7l5.2,1.4
				c4.3,1.2,8.4-0.5,10-4l1.7-3.9c1.2-3.2,0.6-6.7-1.6-9.3l-2.2-2.8c-12.7-16.2-33.9-24-51.6-18.8c-11.2,3.1-21.9,7.8-31.9,13.7
				c-24,14.7-24.2,70.3-23.4,90c-6.1,3.6-11.3,7.8-14,12.3c-5.8,9.8-1.2,17,3.3,21.2c-2.2,5.9-3.3,12.2-3.1,18.6l0.3,14.8
				c-2.6-1.2-5.3-1.5-7.4-0.7c-5,2-5.6,9.6-1.3,17c2.1,3.8,5.4,6.9,9.3,8.9l0.5,24.7c0.7,31.2,27.9,60.2,60.8,64.9l0,0
				c32.9,4.6,59.1-16.9,58.4-48l-0.5-24.7c3.7-0.8,7-3.1,9-6.3C1194.4,357.8,1193.5,350,1188.4,346.6z"/>
			<path class="st1" d="M1282.9,277.3c2.3-1.3,5-1.6,7.5-0.8l-1.9-14.7c-0.8-5.9-0.5-11.9,0.8-17.7c-4.9-3.2-9.6-10.2-10.4-25.1
				c-0.7-12.5,9.4-20.7,21.8-26l6.9-51.2c0.7-5.5-0.7-11.1-3.9-15.7l0,0c-6-8.8-20-7.8-23.3,1.8l-5.1,1c-4.3,0.8-8.6-1.1-10.9-4.8
				l-2.4-4c-1.7-2.8-1.7-6.4,0.2-9.2l1.8-2.6c10.6-15.1,31.3-21.1,50.4-14.5c12.2,4.2,23.9,9.6,34.9,16.3
				c26.9,16.6,35.3,72.1,37.4,91.7c6.8,4.1,12.8,8.7,16.2,13.4c7.4,10.2,3.8,17.1-0.2,20.9c3.1,5.9,5.1,12.2,5.9,18.8l1.9,14.7
				c2.4-1.1,5.1-1.1,7.6,0c5.4,2.4,7.2,10.1,3.8,17c-1.6,3.6-4.6,6.5-8.2,8.1l3.1,24.6c4,31-19.8,57.8-53,59.7l0,0
				c-33.2,1.9-63.3-21.7-67.3-52.7l-3.1-24.6c-4.1-1.2-7.6-3.7-10.2-7.1C1278.4,288,1278.2,280.3,1282.9,277.3z"/>
		</g>
		<g id="first">
			<path class="st1" d="M599.8,385c-2.4-1-5.2-0.9-7.5,0.4l-1.7-15.8c-0.7-6.4-2.4-12.6-5-18.5c4-4.2,7-12.3,4.2-28.1
				c-2.4-13.3-14.2-20.2-27.7-23.6L543,246.6c-2-5.6-2-11.6,0-17.2l0,0c2.4-6.7,9.8-10.1,16.5-7.7c2.9,1,5.3,3,6.8,5.7l5.3,0.2
				c4.4,0.1,8.3-2.7,9.5-6.9l1.3-4.6c1-3.4,0.1-7.1-2.4-9.6l-2.5-2.5c-14-14.1-35.8-16.9-52.9-6.8c-11,6.4-21.1,14.2-30.3,23.1
				c-22.3,22-17.2,81.8-14.6,102.8c-5.7,5.5-10.5,11.3-12.7,16.9c-4.7,12,0.4,18.6,5.3,21.9c-1.6,6.8-2,13.8-1.3,20.7l1.7,15.8
				c-2.5-0.7-5.3-0.3-7.4,1.2c-4.7,3.5-4.6,11.8,0.3,18.6c2.4,3.5,5.9,6,10,7.2l2.9,26.5c3.6,33.3,33.3,57.4,66.3,53.9l0,0
				c33-3.6,56.8-33.5,53.2-66.8l-2.9-26.5c3.7-2,6.7-5.2,8.2-9.1C606.8,395.5,605.2,387.4,599.8,385z"/>
			<path class="st2" d="M384,224.9c-2.6-0.6-5.3-0.2-7.7,1l-1.5-13c-0.6-5.2-2.2-10.3-4.8-14.9c4.2-3.9,7.3-10.9,4.8-23.8
				c-2.2-10.9-14.1-15.5-27.8-17.2l-18.6-42.2c-2-4.6-1.8-9.8,0.3-14.3l0,0c4-8.9,18.3-11.2,23.8-3.8l5.4-0.3c4.4-0.3,8.5-3,9.8-6.6
				l1.5-4c1.1-2.8,0.2-6-2.3-7.8l-2.5-1.8c-14.1-10.5-36.2-10.9-53.8-0.9c-11.1,6.2-21.6,13.6-31.3,21.9c-23.2,20.4-19,69.7-16.7,87
				c-5.9,5.1-10.9,10.3-13.2,15.2c-5.1,10.4,0.1,15.4,5,17.8c-1.7,5.6-2.3,11.5-1.7,17.4l1.5,13c-2.7-0.3-5.3,0.3-7.6,1.7
				c-4.9,3.3-4.9,10.2,0,15.4c2.7,2.8,6.2,4.6,10.1,5.1l2.5,21.8c3.1,27.4,32.9,44.8,66.6,38.9l0,0c33.7-6,58.5-33,55.5-60.5
				l-2.4-21.8c3.7-1.8,6.7-4.7,8.6-8.4C391,233,389.4,226.4,384,224.9z"/>
			<path class="st3" d="M728.5,320.1c2.1-0.4,4.2,0.1,5.9,1.4l3.7-12.3c1.5-5,3.8-9.6,6.8-13.9c-2.5-3.9-3.7-10.8,0.9-22.9
				c3.9-10.2,14.3-13.9,25.5-14.6l23.1-38.9c2.4-4.1,3.3-8.9,2.6-13.6l0,0c-0.9-5.7-6.2-9.5-11.8-8.6c-2.4,0.4-4.6,1.6-6.2,3.5
				l-4.2-0.7c-3.5-0.6-6.1-3.4-6.5-6.9l-0.4-3.9c-0.3-2.9,1-5.6,3.4-7.2l2.3-1.6c13.2-9.1,30.9-8,42.8,2.6
				c7.7,6.8,14.6,14.4,20.5,22.9c14.3,20.8,1.2,67.4-4,83.7c3.7,5.2,6.6,10.5,7.5,15.3c1.9,10.2-3.1,14.7-7.5,16.6
				c0.2,5.6-0.5,11.3-2.1,16.6l-3.7,12.3c2.1-0.2,4.2,0.6,5.7,2.1c3.2,3.5,1.8,10-3.1,14.7c-2.4,2.4-5.6,3.9-9,4.2l-6.3,20.5
				c-7.9,25.9-35,40.5-60.6,32.7l0,0c-25.6-7.8-39.9-35.1-32-61l6.3-20.5c-2.7-2.1-4.5-5.2-5.1-8.5
				C721.3,327.4,723.9,321.2,728.5,320.1z"/>
			<path class="st1" d="M954.3,379.8c1.4-1.7,3.4-2.6,5.6-2.6L955,365c-2-4.9-3.2-10.1-3.6-15.4c-4.5-1.5-9.9-6.2-14-18.8
				c-3.5-10.6,2.3-20.2,10.8-27.9l-6.8-45.7c-0.7-4.8-3.1-9.2-6.7-12.5l0,0c-4.3-3.9-11-3.5-14.9,0.8c-1.7,1.9-2.6,4.3-2.7,6.8
				l-3.7,2.2c-3.1,1.8-7.1,1.3-9.6-1.3l-2.8-2.8c-2.1-2.1-2.8-5.1-2-7.9l0.8-2.7c4.6-15.7,19.3-26.2,35.6-25.5
				c10.5,0.4,20.9,2,30.9,4.9c24.8,7.2,44.4,52.6,50.8,68.9c6.3,1.7,12,4.1,15.8,7.3c8.1,6.9,7,13.6,4.8,18
				c3.8,4.3,6.9,9.2,9.1,14.5l4.9,12.1c1.6-1.5,3.7-2.2,5.8-2c4.8,0.7,7.9,6.8,7,13.6c-0.4,3.5-1.9,6.7-4.4,9.1l8.3,20.3
				c10.4,25.6-1.6,54.6-26.9,64.9l0,0c-25.3,10.3-54.2-2.1-64.6-27.7l-8.3-20.3c-3.5,0-6.9-1.2-9.5-3.4
				C953.4,390.2,951.4,383.6,954.3,379.8z"/>
			<path class="st4" d="M1259.6,381.5c1.5-1.5,3.6-2.2,5.7-2l-3.6-12.3c-1.5-5-2.1-10.1-2-15.3c-4.3-1.9-9-7-11.8-19.7
				c-2.4-10.6,4.3-19.4,13.2-26.2l-2.1-45.2c-0.2-4.8-2.1-9.3-5.3-12.8l0,0c-3.9-4.2-10.4-4.5-14.6-0.7c-1.8,1.7-3,3.9-3.3,6.3
				l-3.9,1.8c-3.2,1.5-7,0.5-9.2-2.2l-2.4-3c-1.8-2.2-2.2-5.3-1.2-7.9l1.1-2.6c6-14.8,21.3-23.7,37.2-21.4c10.2,1.4,20.1,4,29.7,7.8
				c23.4,9.5,38.1,55.6,42.7,72.1c5.9,2.3,11.3,5.2,14.7,8.6c7.3,7.5,5.5,14,2.9,18c3.3,4.6,5.8,9.7,7.4,15.1l3.6,12.3
				c1.7-1.3,3.8-1.8,5.9-1.4c4.6,1.1,7.1,7.4,5.5,13.9c-0.7,3.3-2.5,6.3-5.2,8.4l6.1,20.6c7.7,26-6.9,53.1-32.6,60.6l0,0
				c-25.7,7.5-52.6-7.4-60.3-33.3l-6.1-20.6c-3.4-0.3-6.6-1.8-9-4.3C1257.7,391.5,1256.4,384.9,1259.6,381.5z"/>
			<path class="st4" d="M165.8,351.8c-1.5-1.5-3.6-2.2-5.7-2l3.6-12.3c1.5-5,2.1-10.2,2-15.3c4.3-1.9,9-7,11.8-19.7
				c2.4-10.7-4.3-19.5-13.2-26.2l2.1-45.3c0.2-4.8,2.1-9.3,5.4-12.8l0,0c3.8-4.2,10.4-4.5,14.6-0.7c1.8,1.7,3,3.9,3.3,6.4l3.9,1.8
				c3.2,1.5,7,0.5,9.2-2.2l2.4-3c1.8-2.2,2.2-5.3,1.2-7.9l-1.1-2.6c-6-14.9-21.3-23.7-37.2-21.5c-10.2,1.4-20.1,4-29.6,7.8
				c-23.4,9.5-38.1,55.7-42.7,72.2c-5.9,2.3-11.3,5.2-14.6,8.7c-7.3,7.5-5.5,14-2.9,18c-3.3,4.6-5.8,9.7-7.4,15.1l-3.6,12.3
				c-1.7-1.3-3.8-1.8-5.9-1.4c-4.6,1.1-7.1,7.4-5.5,14c0.7,3.3,2.5,6.3,5.2,8.5L55,364.1c-7.6,26,6.9,53.2,32.6,60.8l0,0
				c25.6,7.6,52.6-7.4,60.3-33.4l6.1-20.6c3.4-0.3,6.6-1.8,9-4.3C167.8,361.8,169.1,355.3,165.8,351.8z"/>
		</g>
		
			<linearGradient id="SVGID_3_" gradientUnits="userSpaceOnUse" x1="718" y1="105" x2="718" y2="368" gradientTransform="matrix(1 0 0 -1 0 508)">
			<stop  offset="0" style="stop-color:#E6E5D3;stop-opacity:0.702"/>
			<stop  offset="1" style="stop-color:#E6E5D3;stop-opacity:0"/>
		</linearGradient>
		<rect y="140" class="st5" width="1436" height="263"/>
	</g>
</g>
</svg>
